<?xml version="1.0" encoding="iso-8859-1"?>
<!-- Generator: Adobe Illustrator 19.1.0, SVG Export Plug-In . SVG Version: 6.00 Build 0)  -->
<svg version="1.1" id="Capa_1" xmlns="http://www.w3.org/2000/svg" xmlns:xlink="http://www.w3.org/1999/xlink" x="0px" y="0px"
	 viewBox="0 0 68.19 68.19" style="enable-background:new 0 0 68.19 68.19;" xml:space="preserve">
<g>
	<g id="group-34svg">
		<path id="path-1_27_" style="fill:#FF917B;" d="M23.226,8.31l42.22,24.665c3.555,1.355,3.708,6.385,0.153,7.74L23.15,65.38
			C20.438,66.414,17,64.412,17,61.51V12.18C17,9.278,20.515,7.276,23.226,8.31z"/>
		<path id="path-2_25_" d="M15.924,63.156c-3.211,0-5.924-2.585-5.924-5.646V8.18c0-3.06,2.731-5.645,5.964-5.645
			c0.707,0,1.395,0.126,2.047,0.374c0.077,0.029,0.152,0.065,0.223,0.107L60.23,27.622c2.164,0.882,3.553,2.941,3.553,5.285
			c0,2.326-1.325,4.292-3.465,5.162L18.187,62.675c-0.07,0.042-0.145,0.078-0.222,0.107C17.314,63.03,16.628,63.156,15.924,63.156z
			 M15.964,5.535C14.562,5.535,13,6.621,13,8.18v49.33c0,1.559,1.541,2.646,2.924,2.646c0.3,0,0.592-0.047,0.869-0.14l42.111-24.595
			c0.071-0.042,0.145-0.078,0.222-0.107c1.038-0.395,1.657-1.296,1.657-2.408c0-0.901-0.459-2.039-1.746-2.53
			c-0.078-0.03-0.153-0.066-0.224-0.108L16.837,5.674C16.56,5.582,16.266,5.535,15.964,5.535z"/>
		<path id="path-3_7_" d="M1.5,60.432c-0.829,0-1.5-0.672-1.5-1.5v-52c0-0.828,0.671-1.5,1.5-1.5S3,6.104,3,6.932v52
			C3,59.76,2.329,60.432,1.5,60.432z"/>
	</g>
</g>
<g>
</g>
<g>
</g>
<g>
</g>
<g>
</g>
<g>
</g>
<g>
</g>
<g>
</g>
<g>
</g>
<g>
</g>
<g>
</g>
<g>
</g>
<g>
</g>
<g>
</g>
<g>
</g>
<g>
</g>
</svg>
