<?xml version="1.0" ?><!DOCTYPE svg  PUBLIC '-//W3C//DTD SVG 1.1//EN'  'http://www.w3.org/Graphics/SVG/1.1/DTD/svg11.dtd'><svg height="131px" style="enable-background:new 0 0 95 131;" version="1.1" viewBox="0 0 95 131" width="95px" xml:space="preserve" xmlns="http://www.w3.org/2000/svg" xmlns:xlink="http://www.w3.org/1999/xlink"><style type="text/css">
<![CDATA[
	.st0{fill:#EF3E42;}
	.st1{fill:#FFFFFF;}
	.st2{fill:none;}
	.st3{fill-rule:evenodd;clip-rule:evenodd;fill:#FFFFFF;}
]]>
</style><defs/><path d="M4.2,68.6c0-6.5,5.3-11.8,11.8-11.8h56.8c6.5,0,11.8,5.3,11.8,11.8v42.2c0,6.5-5.3,11.8-11.8,11.8H16.1  c-6.5,0-11.8-5.3-11.8-11.8V68.6L4.2,68.6z M51.8,109.3l-4-21c3.6-1.3,6.1-4.8,6.1-8.8c0-5.2-4.2-9.4-9.4-9.4  c-5.2,0-9.4,4.2-9.4,9.4c0,4,2.6,7.5,6.1,8.8l-4,21L51.8,109.3L51.8,109.3z M44.5,23.6c-8.9,0-16.1,7.2-16.1,16.1v12.6h-8.1V39.7  c0-13.4,10.8-24.2,24.2-24.2c13.4,0,24.2,10.8,24.2,24.2v12.6h-8.1l0-12.6C60.5,30.8,53.3,23.6,44.5,23.6L44.5,23.6z"/><rect class="st2" height="131" id="_x3C_Slice_x3E__100_" width="95"/></svg>